<svg xmlns="http://www.w3.org/2000/svg" viewBox="0 0 1677.58 2125.27"><defs><style>.cls-1{fill:#ffee7d;}.cls-2{fill:#7ddfff;}</style></defs><g id="Layer_2" data-name="Layer 2"><g id="Layer_1-2" data-name="Layer 1"><path class="cls-1" d="M212.16,1340.55,6.44,1696.88a48,48,0,0,0,0,48l205.72,356.32a48,48,0,0,0,41.61,24H665.21a48,48,0,0,0,41.61-24l205.72-356.32a48,48,0,0,0,0-48L706.82,1340.55a48,48,0,0,0-41.6-24H253.77A48,48,0,0,0,212.16,1340.55Z"/><path class="cls-1" d="M209.82,466.93l-201,348.2a56.17,56.17,0,0,0,0,56.16l201,348.21a56.17,56.17,0,0,0,48.64,28.08H660.53a56.17,56.17,0,0,0,48.63-28.08l201-348.21a56.17,56.17,0,0,0,0-56.16l-201-348.2a56.18,56.18,0,0,0-48.64-28.09H258.46A56.16,56.16,0,0,0,209.82,466.93Z"/><path class="cls-2" d="M970.76,901.71,765,1258a48.07,48.07,0,0,0,0,48L970.76,1662.4a48,48,0,0,0,41.61,24h411.45a48,48,0,0,0,41.6-24l205.73-356.32a48.07,48.07,0,0,0,0-48L1465.42,901.71a48,48,0,0,0-41.6-24H1012.37A48,48,0,0,0,970.76,901.71Z"/><path class="cls-2" d="M968.42,28.08l-201,348.2a56.19,56.19,0,0,0,0,56.17l201,348.2a56.15,56.15,0,0,0,48.64,28.08h402.07a56.17,56.17,0,0,0,48.64-28.08l201-348.2a56.19,56.19,0,0,0,0-56.17l-201-348.2A56.17,56.17,0,0,0,1419.13,0H1017.06A56.15,56.15,0,0,0,968.42,28.08Z"/></g></g></svg>